<?xml version="1.0" encoding="utf-8"?>
<!-- Generator: Adobe Illustrator 16.0.0, SVG Export Plug-In . SVG Version: 6.00 Build 0)  -->
<!DOCTYPE svg PUBLIC "-//W3C//DTD SVG 1.1//EN" "http://www.w3.org/Graphics/SVG/1.1/DTD/svg11.dtd">
<svg version="1.1" id="图层_3" xmlns="http://www.w3.org/2000/svg" xmlns:xlink="http://www.w3.org/1999/xlink" x="0px" y="0px"
	 width="192px" height="192px" viewBox="0 0 192 192" enable-background="new 0 0 192 192" xml:space="preserve">
<path fill="#4285F4" d="M160.75,20H31.25C25.034,20,20,25.035,20,31.25v129.5c0,6.216,5.034,11.25,11.25,11.25h129.5
	c6.216,0,11.25-5.034,11.25-11.25V31.25C172,25.035,166.966,20,160.75,20z"/>
<line fill="none" x1="18.435" y1="73.155" x2="177.904" y2="73.155"/>
<g enable-background="new    ">
	<path fill="#FFFFFF" d="M55.594,87.939V61.691h8.599c3.089,0,5.499,0.604,7.229,1.812s2.596,3.001,2.596,5.381
		c0,1.202-0.313,2.277-0.938,3.227c-0.625,0.95-1.539,1.665-2.74,2.146c1.634,0.3,2.866,1.009,3.695,2.127
		c0.83,1.118,1.244,2.422,1.244,3.912c0,2.512-0.829,4.414-2.488,5.706c-1.659,1.292-4.008,1.938-7.049,1.938H55.594z
		 M60.858,72.688h3.515c1.406,0,2.488-0.289,3.245-0.865c0.757-0.577,1.136-1.418,1.136-2.524c0-1.214-0.382-2.109-1.145-2.686
		c-0.763-0.577-1.902-0.866-3.416-0.866h-3.335V72.688z M60.858,76.33v7.571h4.885c1.394,0,2.458-0.303,3.191-0.911
		c0.733-0.606,1.1-1.505,1.1-2.695c0-1.274-0.36-2.253-1.082-2.938s-1.809-1.027-3.263-1.027H60.858z"/>
	<path fill="#FFFFFF" d="M90.225,87.939c-0.192-0.444-0.358-0.913-0.496-1.406c-0.139-0.493-0.238-0.997-0.297-1.514
		c-0.541,0.95-1.256,1.737-2.146,2.361c-0.89,0.625-1.947,0.938-3.173,0.938c-2.043,0-3.618-0.525-4.723-1.577
		c-1.106-1.052-1.659-2.485-1.659-4.3c0-1.911,0.736-3.392,2.208-4.443s3.621-1.578,6.445-1.578h2.957v-1.55
		c0-0.938-0.247-1.665-0.739-2.181s-1.226-0.775-2.199-0.775c-0.854,0-1.512,0.208-1.974,0.622
		c-0.463,0.415-0.694,0.982-0.694,1.704h-5.066l-0.036-0.108c-0.084-1.646,0.634-3.067,2.154-4.263s3.506-1.794,5.958-1.794
		c2.344,0,4.239,0.589,5.688,1.767c1.448,1.178,2.172,2.867,2.172,5.066v8.058c0,0.914,0.069,1.773,0.207,2.578
		s0.357,1.604,0.658,2.397H90.225z M85.412,84.424c0.914,0,1.731-0.229,2.452-0.685c0.721-0.457,1.214-0.985,1.479-1.586v-2.758
		h-2.957c-1.118,0-1.962,0.276-2.533,0.829c-0.571,0.553-0.856,1.232-0.856,2.037c0,0.661,0.213,1.187,0.64,1.578
		C84.063,84.229,84.655,84.424,85.412,84.424z"/>
	<path fill="#FFFFFF" d="M109.1,82.531c0-0.577-0.279-1.073-0.838-1.487c-0.56-0.415-1.596-0.778-3.11-1.091
		c-2.283-0.457-4.017-1.147-5.2-2.073c-1.185-0.925-1.776-2.182-1.776-3.768c0-1.67,0.709-3.094,2.128-4.272
		c1.418-1.178,3.305-1.767,5.66-1.767c2.464,0,4.438,0.589,5.922,1.767c1.484,1.178,2.196,2.644,2.137,4.399l-0.036,0.108h-5.084
		c0-0.781-0.252-1.418-0.757-1.911s-1.232-0.739-2.182-0.739c-0.841,0-1.509,0.21-2.001,0.631c-0.493,0.421-0.739,0.938-0.739,1.55
		c0,0.601,0.255,1.091,0.767,1.469c0.511,0.379,1.547,0.718,3.109,1.019c2.392,0.481,4.174,1.187,5.345,2.118
		c1.172,0.932,1.758,2.215,1.758,3.849c0,1.755-0.751,3.191-2.253,4.309c-1.503,1.118-3.485,1.676-5.949,1.676
		c-2.596,0-4.648-0.658-6.156-1.974c-1.509-1.316-2.227-2.815-2.154-4.498l0.036-0.108h4.813c0.036,1.045,0.378,1.803,1.027,2.271
		c0.648,0.469,1.496,0.703,2.542,0.703c0.974,0,1.715-0.195,2.227-0.586C108.845,83.736,109.1,83.204,109.1,82.531z"/>
	<path fill="#FFFFFF" d="M126.045,88.317c-2.908,0-5.18-0.892-6.814-2.677c-1.634-1.785-2.451-4.083-2.451-6.896v-0.721
		c0-2.92,0.793-5.312,2.38-7.175c1.586-1.863,3.768-2.788,6.544-2.776c2.619,0,4.63,0.802,6.029,2.407
		c1.4,1.604,2.101,3.765,2.101,6.481v2.722h-11.628l-0.054,0.108c0.084,1.334,0.489,2.416,1.217,3.245
		c0.727,0.829,1.806,1.244,3.236,1.244c1.177,0,2.178-0.12,3.001-0.36s1.674-0.607,2.551-1.1l1.425,3.245
		c-0.782,0.637-1.839,1.172-3.173,1.604S127.619,88.317,126.045,88.317z M125.703,72.129c-1.059,0-1.872,0.364-2.443,1.091
		c-0.57,0.727-0.916,1.692-1.036,2.893l0.036,0.09h6.417v-0.396c0-1.142-0.234-2.04-0.703-2.695
		C127.506,72.457,126.748,72.129,125.703,72.129z"/>
</g>
<g enable-background="new    ">
	<path fill="#FFFFFF" d="M85.997,101.15c0.964,0,1.857,0.088,2.68,0.264s1.636,0.434,2.441,0.774l-0.885,3.641
		c-0.771-0.261-1.463-0.457-2.076-0.587c-0.612-0.131-1.321-0.196-2.126-0.196c-1.452,0-2.623,0.557-3.513,1.668
		c-0.891,1.111-1.335,2.659-1.335,4.644v0.8c0.657-0.646,1.443-1.148,2.356-1.506c0.913-0.356,1.931-0.535,3.054-0.535
		c2.121,0,3.777,0.751,4.967,2.254c1.191,1.503,1.787,3.462,1.787,5.878c0,2.483-0.771,4.502-2.314,6.056s-3.555,2.331-6.039,2.331
		c-2.586,0-4.693-0.885-6.32-2.654c-1.628-1.769-2.441-4.19-2.441-7.264v-5.188c0-3.142,0.921-5.657,2.765-7.545
		C80.84,102.095,83.173,101.15,85.997,101.15z M84.942,113.876c-0.896,0-1.659,0.145-2.288,0.434s-1.12,0.688-1.471,1.199v1.327
		c0,1.905,0.349,3.38,1.046,4.423c0.698,1.044,1.619,1.565,2.765,1.565c1.032,0,1.854-0.435,2.467-1.302s0.918-1.959,0.918-3.274
		c0-1.361-0.309-2.431-0.927-3.207C86.833,114.264,85.997,113.876,84.942,113.876z"/>
	<path fill="#FFFFFF" d="M110.852,117.057h2.79v3.845h-2.79v5.376h-4.967v-5.376H95.796l-0.238-2.977l10.275-16.417h5.019V117.057z
		 M100.066,117.057h5.818v-8.999l-0.103-0.018l-0.51,1.106L100.066,117.057z"/>
</g>
</svg>
