<?xml version="1.0" encoding="utf-8"?>
<!-- Generator: Adobe Illustrator 16.0.0, SVG Export Plug-In . SVG Version: 6.00 Build 0)  -->
<!DOCTYPE svg PUBLIC "-//W3C//DTD SVG 1.1//EN" "http://www.w3.org/Graphics/SVG/1.1/DTD/svg11.dtd">
<svg version="1.1" id="图层_3" xmlns="http://www.w3.org/2000/svg" xmlns:xlink="http://www.w3.org/1999/xlink" x="0px" y="0px"
	 width="192px" height="192px" viewBox="0 0 192 192" enable-background="new 0 0 192 192" xml:space="preserve">
<path fill="#34A853" d="M80.725,20L24.026,164.063h17.756l15.328-40.355h66.187l15.335,40.355h17.962L99.888,20H80.725z
	 M90.008,37.753h0.8l27.235,72.042H62.365L90.008,37.753z"/>
<path fill="#EA4335" d="M88.932,22.243L29.859,171.541h18.5l15.969-41.823h68.957l15.977,41.823h18.713L108.896,22.243H88.932z
	 M98.606,40.643h0.831l28.37,74.658H69.803L98.606,40.643z"/>
<path fill="#FFFFFF" d="M86.788,24.302L31.971,163.584h17.167l14.818-39.017h63.991l14.823,39.017h17.366L105.314,24.302H86.788z
	 M95.763,41.467h0.773l26.33,69.648H69.037L95.763,41.467z"/>
</svg>
