<?xml version="1.0" encoding="utf-8"?>
<!-- Generator: Adobe Illustrator 16.0.0, SVG Export Plug-In . SVG Version: 6.00 Build 0)  -->
<!DOCTYPE svg PUBLIC "-//W3C//DTD SVG 1.1//EN" "http://www.w3.org/Graphics/SVG/1.1/DTD/svg11.dtd">
<svg version="1.1" id="图层_3" xmlns="http://www.w3.org/2000/svg" xmlns:xlink="http://www.w3.org/1999/xlink" x="0px" y="0px"
	 width="192px" height="192px" viewBox="0 0 192 192" enable-background="new 0 0 192 192" xml:space="preserve">
<path fill="#EA4335" d="M92.003,135.909c0,19.869-16.106,35.973-35.973,35.973s-35.973-16.104-35.973-35.973
	c0-19.866,16.106-35.972,35.973-35.972h23.982h11.991v11.991V135.909L92.003,135.909L92.003,135.909z"/>
<path fill="#FBBC05" d="M99.996,135.909c0,19.869,16.107,35.973,35.973,35.973c19.868,0,35.973-16.104,35.973-35.973
	c0-19.866-16.104-35.972-35.973-35.972h-23.98H99.996v11.991V135.909L99.996,135.909L99.996,135.909z"/>
<path fill="#4285F4" d="M92.003,55.972C92.003,36.106,75.897,20,56.031,20S20.058,36.106,20.058,55.972
	c0,19.868,16.106,35.973,35.973,35.973h23.982h11.991v-11.99V55.972L92.003,55.972L92.003,55.972z"/>
<path fill="#34A853" d="M99.996,55.972L99.996,55.972C99.996,36.106,116.104,20,135.969,20c19.868,0,35.973,16.106,35.973,35.972
	c0,19.868-16.104,35.973-35.973,35.973h-23.98H99.996v-11.99V55.972L99.996,55.972L99.996,55.972z"/>
</svg>
