<?xml version="1.0" encoding="utf-8"?>
<!-- Generator: Adobe Illustrator 16.0.0, SVG Export Plug-In . SVG Version: 6.00 Build 0)  -->
<!DOCTYPE svg PUBLIC "-//W3C//DTD SVG 1.1//EN" "http://www.w3.org/Graphics/SVG/1.1/DTD/svg11.dtd">
<svg version="1.1" id="图层_3" xmlns="http://www.w3.org/2000/svg" xmlns:xlink="http://www.w3.org/1999/xlink" x="0px" y="0px"
	 width="192px" height="192px" viewBox="0 0 192 192" enable-background="new 0 0 192 192" xml:space="preserve">
<path fill="#FBBC05" d="M8.125,43.625v104.75c0,6.216,5.034,11.25,11.25,11.25h153.25c6.215,0,11.25-5.034,11.25-11.25V43.625
	c0-6.215-5.035-11.25-11.25-11.25H19.375C13.159,32.375,8.125,37.41,8.125,43.625z"/>
<path opacity="0.8" fill="#FFFFFF" enable-background="new    " d="M82.146,63.401h-41.49c-3.891,0-7.021,3.171-7.021,7.021v51.98
	c0,3.893,3.172,7.021,7.021,7.021h41.49c3.892,0,7.021-3.173,7.021-7.021v-51.98C89.21,66.573,86.038,63.401,82.146,63.401z
	 M61.591,78.036c5.076,0,9.179,4.145,9.179,9.177c0,5.076-4.145,9.178-9.179,9.178c-5.074,0-9.177-4.103-9.177-9.178
	C52.414,82.181,56.517,78.036,61.591,78.036z M79.99,114.832H43.194v-3.044c0-6.133,12.266-9.519,18.397-9.519
	c6.133,0,18.399,3.386,18.399,9.519V114.832z"/>
<g opacity="0.8">
	<path fill="#FFFFFF" d="M135.585,132.215l-4.169,4.17l1.908,3.64l-2.694,2.694l-8.524-17.199l2.642-2.641l17.181,8.542
		l-2.694,2.693L135.585,132.215z M130.029,133.726l2.906-2.906l-5.954-3.109l-0.053,0.054L130.029,133.726z"/>
	<path fill="#FFFFFF" d="M147.095,120.705l-4.169,4.17l1.908,3.64l-2.694,2.694l-8.524-17.199l2.642-2.641l17.181,8.542
		l-2.694,2.693L147.095,120.705z M141.539,122.216l2.906-2.906l-5.954-3.109l-0.053,0.054L141.539,122.216z"/>
	<path fill="#FFFFFF" d="M158.604,109.195l-4.169,4.17l1.908,3.64l-2.694,2.694l-8.524-17.199l2.642-2.641l17.181,8.542
		l-2.694,2.693L158.604,109.195z M153.049,110.706l2.906-2.906l-5.954-3.109l-0.053,0.054L153.049,110.706z"/>
</g>
</svg>
