<?xml version="1.0" encoding="utf-8"?>
<!-- Generator: Adobe Illustrator 16.0.0, SVG Export Plug-In . SVG Version: 6.00 Build 0)  -->
<!DOCTYPE svg PUBLIC "-//W3C//DTD SVG 1.1//EN" "http://www.w3.org/Graphics/SVG/1.1/DTD/svg11.dtd">
<svg version="1.1" id="图层_3" xmlns="http://www.w3.org/2000/svg" xmlns:xlink="http://www.w3.org/1999/xlink" x="0px" y="0px"
	 width="192px" height="192px" viewBox="0 0 192 192" enable-background="new 0 0 192 192" xml:space="preserve">
<path fill="#4285F4" d="M125.175,20.63H28.407c-4.645,0-8.407,3.763-8.407,8.406v96.769c0,4.646,3.762,8.407,8.406,8.407h96.768
	c4.646,0,8.407-3.762,8.407-8.407V29.036C133.582,24.393,129.82,20.63,125.175,20.63z"/>
<polygon fill="#FFFFFF" points="60.847,66.511 72.236,80.199 88.18,59.676 108.682,87.01 44.901,87.01 "/>
<circle fill="#34A853" cx="133.875" cy="134.505" r="49.625"/>
<path fill="#FFFFFF" d="M120.874,131.449l-12.192,12.223l12.192,12.222v-9.166h21.419v-6.111h-21.419V131.449z M163.682,125.339
	l-12.192-12.223v9.167H130.07v6.11h21.419v9.167L163.682,125.339z"/>
</svg>
