<?xml version="1.0" encoding="utf-8"?>
<!-- Generator: Adobe Illustrator 16.0.0, SVG Export Plug-In . SVG Version: 6.00 Build 0)  -->
<!DOCTYPE svg PUBLIC "-//W3C//DTD SVG 1.1//EN" "http://www.w3.org/Graphics/SVG/1.1/DTD/svg11.dtd">
<svg version="1.1" id="图层_3" xmlns="http://www.w3.org/2000/svg" xmlns:xlink="http://www.w3.org/1999/xlink" x="0px" y="0px"
	 width="192px" height="192px" viewBox="0 0 192 192" enable-background="new 0 0 192 192" xml:space="preserve">
<path fill="#4285F4" d="M125.175,19.927H28.407c-4.645,0-8.407,3.763-8.407,8.406v96.769c0,4.646,3.762,8.407,8.406,8.407h96.768
	c4.646,0,8.407-3.762,8.407-8.407V28.333C133.582,23.69,129.82,19.927,125.175,19.927z"/>
<polygon fill="#FFFFFF" points="60.847,65.808 72.236,79.496 88.18,58.973 108.682,86.307 44.901,86.307 "/>
<circle fill="#34A853" cx="133.875" cy="133.802" r="49.625"/>
<polygon fill="#FFFFFF" points="122.816,131.558 105.641,131.558 105.641,136.458 122.816,136.458 122.816,143.808 132.591,134.007 
	122.816,124.208 "/>
<polygon fill="#FFFFFF" points="145.512,143.517 145.512,136.165 162.688,136.165 162.688,131.267 145.512,131.267 145.512,123.915 
	135.736,133.716 "/>
</svg>
