<?xml version="1.0" encoding="utf-8"?>
<!-- Generator: Adobe Illustrator 16.0.0, SVG Export Plug-In . SVG Version: 6.00 Build 0)  -->
<!DOCTYPE svg PUBLIC "-//W3C//DTD SVG 1.1//EN" "http://www.w3.org/Graphics/SVG/1.1/DTD/svg11.dtd">
<svg version="1.1" id="图层_3" xmlns="http://www.w3.org/2000/svg" xmlns:xlink="http://www.w3.org/1999/xlink" x="0px" y="0px"
	 width="192px" height="192px" viewBox="0 0 192 192" enable-background="new 0 0 192 192" xml:space="preserve">
<path fill="#4285F4" d="M172.034,155.139V36.862c0-9.294-7.605-16.896-16.896-16.896H36.861c-9.29,0-16.896,7.603-16.896,16.896
	v118.276c0,9.289,7.607,16.895,16.896,16.895h118.276C164.429,172.035,172.034,164.428,172.034,155.139z"/>
<polygon fill="#FFFFFF" points="74.473,73.904 91.04,93.85 114.233,63.963 144.055,103.725 51.279,103.725 "/>
<g opacity="0.8">
	<path fill="#FFFFFF" d="M129.986,149.215l-4.169,4.17l1.908,3.64l-2.694,2.694l-8.524-17.199l2.642-2.641l17.181,8.542
		l-2.694,2.693L129.986,149.215z M124.431,150.726l2.906-2.906l-5.954-3.109l-0.053,0.054L124.431,150.726z"/>
	<path fill="#FFFFFF" d="M141.496,137.705l-4.169,4.17l1.908,3.64l-2.694,2.694l-8.524-17.199l2.642-2.641l17.181,8.542
		l-2.694,2.693L141.496,137.705z M135.94,139.216l2.906-2.906l-5.954-3.109l-0.053,0.054L135.94,139.216z"/>
	<path fill="#FFFFFF" d="M153.006,126.195l-4.169,4.17l1.908,3.64l-2.694,2.694l-8.524-17.199l2.642-2.641l17.181,8.542
		l-2.694,2.693L153.006,126.195z M147.45,127.706l2.906-2.906l-5.954-3.109l-0.053,0.054L147.45,127.706z"/>
</g>
</svg>
