<?xml version="1.0" encoding="utf-8"?>
<!-- Generator: Adobe Illustrator 16.0.0, SVG Export Plug-In . SVG Version: 6.00 Build 0)  -->
<!DOCTYPE svg PUBLIC "-//W3C//DTD SVG 1.1//EN" "http://www.w3.org/Graphics/SVG/1.1/DTD/svg11.dtd">
<svg version="1.1" id="图层_3" xmlns="http://www.w3.org/2000/svg" xmlns:xlink="http://www.w3.org/1999/xlink" x="0px" y="0px"
	 width="192px" height="192px" viewBox="0 0 192 192" enable-background="new 0 0 192 192" xml:space="preserve">
<path fill="#4285F4" d="M160.75,20H31.25C25.035,20,20,25.035,20,31.25v129.5c0,6.216,5.034,11.25,11.25,11.25h129.5
	c6.217,0,11.25-5.034,11.25-11.25V31.25C172,25.035,166.967,20,160.75,20z"/>
<polygon fill="#FFFFFF" points="73.574,119.443 89.593,138.697 112.02,109.832 140.854,148.277 51.147,148.277 "/>
<path fill="#FFFFFF" d="M120.205,82.251L99.508,61.555c2.023-5.208,0.896-11.443-3.283-15.623
	c-4.511-4.511-11.311-5.439-16.75-2.819l9.851,9.851l-6.932,6.866l-9.851-9.851c-2.587,5.439-1.692,12.206,2.819,16.75
	c4.179,4.179,10.415,5.307,15.623,3.284l20.696,20.697c0.896,0.896,2.389,0.896,3.184,0l5.308-5.307
	C121.101,84.605,121.101,83.146,120.205,82.251z"/>
</svg>
