<?xml version="1.0" encoding="utf-8"?>
<!-- Generator: Adobe Illustrator 16.0.0, SVG Export Plug-In . SVG Version: 6.00 Build 0)  -->
<!DOCTYPE svg PUBLIC "-//W3C//DTD SVG 1.1//EN" "http://www.w3.org/Graphics/SVG/1.1/DTD/svg11.dtd">
<svg version="1.1" id="图层_3" xmlns="http://www.w3.org/2000/svg" xmlns:xlink="http://www.w3.org/1999/xlink" x="0px" y="0px"
	 width="192px" height="192px" viewBox="0 0 192 192" enable-background="new 0 0 192 192" xml:space="preserve">
<path fill="#FBBC05" d="M164.34,68.5H76.16c-4.232,0-7.661,3.428-7.661,7.66v88.18c0,4.232,3.428,7.66,7.661,7.66h88.18
	c4.231,0,7.66-3.428,7.66-7.66V76.16C172,71.928,168.571,68.5,164.34,68.5z"/>
<path fill="#4285F4" d="M115.839,20H27.66C23.427,20,20,23.428,20,27.66v88.179c0,4.233,3.428,7.661,7.66,7.661h88.179
	c4.232,0,7.661-3.428,7.661-7.661V27.66C123.5,23.428,120.071,20,115.839,20z"/>
<path fill="#34A853" stroke="#FFFFFF" stroke-miterlimit="10" d="M76.16,68.5c-4.232,0-7.661,3.428-7.661,7.66v47.34h47.339
	c4.232,0,7.661-3.428,7.661-7.661V68.5H76.16z"/>
</svg>
