<?xml version="1.0" encoding="utf-8"?>
<!-- Generator: Adobe Illustrator 16.0.0, SVG Export Plug-In . SVG Version: 6.00 Build 0)  -->
<!DOCTYPE svg PUBLIC "-//W3C//DTD SVG 1.1//EN" "http://www.w3.org/Graphics/SVG/1.1/DTD/svg11.dtd">
<svg version="1.1" id="图层_3" xmlns="http://www.w3.org/2000/svg" xmlns:xlink="http://www.w3.org/1999/xlink" x="0px" y="0px"
	 width="192px" height="192px" viewBox="0 0 192 192" enable-background="new 0 0 192 192" xml:space="preserve">
<path fill="#4285F4" d="M160.75,20H31.25C25.035,20,20,25.035,20,31.25v129.5c0,6.216,5.034,11.25,11.25,11.25h129.5
	c6.217,0,11.25-5.034,11.25-11.25V31.25C172,25.035,166.967,20,160.75,20z"/>
<polygon fill="#FFFFFF" points="73.574,119.443 89.593,138.697 112.02,109.832 140.854,148.277 51.147,148.277 "/>
<path fill="#FFFFFF" d="M124.368,48.879l-6.412-6.413c-1.068-1.07-2.797-1.07-3.864,0l-8.551,8.55l-5.29-5.235l-3.864,3.865
	l3.892,3.891L75.833,77.984v13.018h13.018l24.446-24.445l3.891,3.891l3.864-3.864l-5.261-5.263l8.551-8.55
	C125.437,51.675,125.437,49.947,124.368,48.879z M86.577,85.521l-5.263-5.261l22.09-22.092l5.263,5.263L86.577,85.521z"/>
</svg>
