<?xml version="1.0" encoding="utf-8"?>
<!-- Generator: Adobe Illustrator 16.0.0, SVG Export Plug-In . SVG Version: 6.00 Build 0)  -->
<!DOCTYPE svg PUBLIC "-//W3C//DTD SVG 1.1//EN" "http://www.w3.org/Graphics/SVG/1.1/DTD/svg11.dtd">
<svg version="1.1" id="图层_3" xmlns="http://www.w3.org/2000/svg" xmlns:xlink="http://www.w3.org/1999/xlink" x="0px" y="0px"
	 width="192px" height="192px" viewBox="0 0 192 192" enable-background="new 0 0 192 192" xml:space="preserve">
<path fill="#4285F4" d="M160.75,20H31.25C25.035,20,20,25.035,20,31.25v129.5c0,6.216,5.034,11.25,11.25,11.25h129.5
	c6.217,0,11.25-5.034,11.25-11.25V31.25C172,25.035,166.967,20,160.75,20z"/>
<polygon fill="#FFFFFF" points="73.574,119.443 89.593,138.697 112.02,109.832 140.854,148.277 51.147,148.277 "/>
<g>
	<path fill="#FFFFFF" d="M60.767,58.403c0.87,0,1.675,0.08,2.417,0.238c0.742,0.159,1.476,0.392,2.203,0.698l-0.798,3.285
		c-0.697-0.235-1.32-0.412-1.873-0.53c-0.553-0.117-1.192-0.176-1.919-0.176c-1.31,0-2.366,0.501-3.169,1.504
		s-1.204,2.399-1.204,4.19v0.722c0.593-0.584,1.301-1.036,2.125-1.358c0.824-0.322,1.742-0.483,2.755-0.483
		c1.914,0,3.407,0.678,4.482,2.033c1.075,1.356,1.612,3.124,1.612,5.303c0,2.241-0.696,4.063-2.088,5.464
		c-1.392,1.402-3.208,2.103-5.449,2.103c-2.333,0-4.234-0.798-5.702-2.395c-1.468-1.596-2.203-3.781-2.203-6.554v-4.682
		c0-2.834,0.831-5.103,2.494-6.807C56.114,59.255,58.219,58.403,60.767,58.403z M59.815,69.884c-0.809,0-1.497,0.13-2.064,0.391
		c-0.568,0.261-1.011,0.622-1.327,1.083v1.197c0,1.719,0.314,3.049,0.943,3.991c0.629,0.941,1.46,1.412,2.494,1.412
		c0.931,0,1.673-0.392,2.226-1.175c0.553-0.783,0.829-1.767,0.829-2.954c0-1.228-0.278-2.192-0.836-2.893
		C61.521,70.235,60.767,69.884,59.815,69.884z"/>
	<path fill="#FFFFFF" d="M83.191,72.755h2.518v3.469h-2.518v4.85H78.71v-4.85h-9.102l-0.215-2.686l9.271-14.812h4.527V72.755z
		 M73.46,72.755h5.25v-8.12l-0.092-0.015l-0.46,0.998L73.46,72.755z"/>
	<path fill="#FFFFFF" d="M87.55,75.379l4.743-4.834l-4.743-4.835l2.641-2.517l4.65,4.758l4.666-4.758l2.641,2.517l-4.743,4.835
		l4.743,4.834l-2.641,2.518l-4.666-4.743l-4.65,4.743L87.55,75.379z"/>
	<path fill="#FFFFFF" d="M113.537,58.403c0.869,0,1.675,0.08,2.416,0.238c0.743,0.159,1.477,0.392,2.203,0.698l-0.797,3.285
		c-0.697-0.235-1.321-0.412-1.873-0.53c-0.553-0.117-1.192-0.176-1.919-0.176c-1.31,0-2.367,0.501-3.17,1.504
		s-1.205,2.399-1.205,4.19v0.722c0.595-0.584,1.304-1.036,2.127-1.358s1.741-0.483,2.754-0.483c1.914,0,3.408,0.678,4.482,2.033
		c1.074,1.356,1.611,3.124,1.611,5.303c0,2.241-0.696,4.063-2.087,5.464c-1.392,1.402-3.208,2.103-5.448,2.103
		c-2.335,0-4.234-0.798-5.703-2.395c-1.468-1.596-2.203-3.781-2.203-6.554v-4.682c0-2.834,0.831-5.103,2.495-6.807
		C108.884,59.255,110.988,58.403,113.537,58.403z M112.585,69.884c-0.809,0-1.497,0.13-2.064,0.391
		c-0.567,0.261-1.01,0.622-1.328,1.083v1.197c0,1.719,0.314,3.049,0.944,3.991c0.629,0.941,1.46,1.412,2.495,1.412
		c0.931,0,1.672-0.392,2.225-1.175c0.553-0.783,0.829-1.767,0.829-2.954c0-1.228-0.279-2.192-0.838-2.893
		C114.291,70.235,113.537,69.884,112.585,69.884z"/>
	<path fill="#FFFFFF" d="M135.961,72.755h2.518v3.469h-2.518v4.85h-4.482v-4.85h-9.101l-0.216-2.686l9.271-14.812h4.527V72.755z
		 M126.229,72.755h5.249v-8.12l-0.091-0.015l-0.461,0.998L126.229,72.755z"/>
</g>
</svg>
