<?xml version="1.0" encoding="utf-8"?>
<!-- Generator: Adobe Illustrator 16.0.0, SVG Export Plug-In . SVG Version: 6.00 Build 0)  -->
<!DOCTYPE svg PUBLIC "-//W3C//DTD SVG 1.1//EN" "http://www.w3.org/Graphics/SVG/1.1/DTD/svg11.dtd">
<svg version="1.1" id="图层_3" xmlns="http://www.w3.org/2000/svg" xmlns:xlink="http://www.w3.org/1999/xlink" x="0px" y="0px"
	 width="192px" height="192px" viewBox="0 0 192 192" enable-background="new 0 0 192 192" xml:space="preserve">
<path fill="#4285F4" d="M125.175,20.26H28.407c-4.646,0-8.407,3.763-8.407,8.406v96.769c0,4.646,3.762,8.407,8.406,8.407h96.768
	c4.646,0,8.407-3.762,8.407-8.407V28.666C133.582,24.023,129.82,20.26,125.175,20.26z"/>
<polygon fill="#FFFFFF" points="60.848,66.141 72.236,79.829 88.18,59.306 108.682,86.64 44.9,86.64 "/>
<circle fill="#34A853" cx="133.875" cy="134.135" r="49.625"/>
<polygon fill="#FFFFFF" points="157.667,135.117 150.688,135.117 150.688,145.588 140.217,145.588 140.217,152.567 157.667,152.567 
	"/>
<polygon fill="#FFFFFF" points="115.784,124.646 126.256,124.646 126.256,117.666 108.805,117.666 108.805,135.117 115.784,135.117 
	"/>
</svg>
