<?xml version="1.0" encoding="utf-8"?>
<!-- Generator: Adobe Illustrator 16.0.0, SVG Export Plug-In . SVG Version: 6.00 Build 0)  -->
<!DOCTYPE svg PUBLIC "-//W3C//DTD SVG 1.1//EN" "http://www.w3.org/Graphics/SVG/1.1/DTD/svg11.dtd">
<svg version="1.1" id="图层_3" xmlns="http://www.w3.org/2000/svg" xmlns:xlink="http://www.w3.org/1999/xlink" x="0px" y="0px"
	 width="192px" height="192px" viewBox="0 0 192 192" enable-background="new 0 0 192 192" xml:space="preserve">
<rect x="20" y="20" display="none" fill="#4285F4" width="152" height="152"/>
<path display="none" fill="#4285F4" d="M160.75,20H31.25C25.034,20,20,25.035,20,31.25v129.5c0,6.216,5.034,11.25,11.25,11.25h129.5
	c6.215,0,11.25-5.034,11.25-11.25V31.25C172,25.035,166.965,20,160.75,20z"/>
<path fill="#4285F4" d="M20,20v152l109.112-0.323c1.601,0.205,3.229,0.323,4.887,0.323C154.986,172,172,154.986,172,133.999V20H20z"
	/>
<polygon fill="#FFFFFF" points="74.54,86.057 91.107,106.002 114.301,76.115 144.122,115.877 51.346,115.877 "/>
</svg>
