<?xml version="1.0" encoding="utf-8"?>
<!-- Generator: Adobe Illustrator 16.0.0, SVG Export Plug-In . SVG Version: 6.00 Build 0)  -->
<!DOCTYPE svg PUBLIC "-//W3C//DTD SVG 1.1//EN" "http://www.w3.org/Graphics/SVG/1.1/DTD/svg11.dtd">
<svg version="1.1" id="图层_3" xmlns="http://www.w3.org/2000/svg" xmlns:xlink="http://www.w3.org/1999/xlink" x="0px" y="0px"
	 width="192px" height="192px" viewBox="0 0 192 192" enable-background="new 0 0 192 192" xml:space="preserve">
<path fill="#34A853" d="M20.036,71.526V162c0,5.368,4.348,9.718,9.717,9.718h132.362c5.367,0,9.717-4.35,9.717-9.718V71.526
	c0-5.368-4.35-9.716-9.717-9.716H29.753C24.384,61.81,20.036,66.159,20.036,71.526z"/>
<path fill="#EA4335" d="M20.036,51.458v90.474c0,5.368,4.348,9.716,9.717,9.716h132.362c5.367,0,9.717-4.348,9.717-9.716V51.458
	c0-5.368-4.35-9.717-9.717-9.717H29.753C24.384,41.742,20.036,46.091,20.036,51.458z"/>
<line fill="none" x1="30.973" y1="60.695" x2="190.441" y2="60.695"/>
<path fill="none" d="M59.708,63.417h50.999v51H59.708V63.417z"/>
<path fill="none" d="M82.973,56.333h97v97h-97V56.333z"/>
<line fill="none" x1="29.973" y1="66.917" x2="189.441" y2="66.917"/>
<rect x="35.678" y="14.478" fill="none" width="144.394" height="144.396"/>
<g>
	<path fill="#4285F4" d="M20.06,29.717v90.474c0,5.368,4.348,9.717,9.717,9.717H162.14c5.367,0,9.717-4.349,9.717-9.717V29.717
		c0-5.368-4.35-9.717-9.717-9.717H29.777C24.408,20,20.06,24.349,20.06,29.717z"/>
	<path fill="#2D6FE4" d="M20.145,103.168v17.022c0,5.368,4.348,9.717,9.717,9.717h132.362c5.367,0,9.717-4.349,9.717-9.717v-17.022
		H20.145z"/>
	<rect x="63.247" y="112.938" opacity="0.8" fill="#FFFFFF" enable-background="new    " width="65.424" height="6.909"/>
	<polygon fill="#FFFFFF" points="79.781,59.931 91.396,73.892 107.659,52.961 128.568,80.839 63.519,80.839 	"/>
</g>
</svg>
