<?xml version="1.0" encoding="utf-8"?>
<!-- Generator: Adobe Illustrator 16.0.0, SVG Export Plug-In . SVG Version: 6.00 Build 0)  -->
<!DOCTYPE svg PUBLIC "-//W3C//DTD SVG 1.1//EN" "http://www.w3.org/Graphics/SVG/1.1/DTD/svg11.dtd">
<svg version="1.1" id="图层_3" xmlns="http://www.w3.org/2000/svg" xmlns:xlink="http://www.w3.org/1999/xlink" x="0px" y="0px"
	 width="192px" height="192px" viewBox="0 0 192 192" enable-background="new 0 0 192 192" xml:space="preserve">
<path fill="#34A853" d="M176.537,61.957c-4.604-10.655-10.83-19.905-18.767-27.841c-7.935-7.936-17.187-14.162-27.84-18.765
	c-10.609-4.604-22.01-6.884-34.11-6.884c-12.145,0-23.501,2.28-34.155,6.884c-10.654,4.603-19.949,10.829-27.929,18.765
	c-7.979,7.936-14.25,17.231-18.853,27.841C10.28,72.566,8,83.966,8,96.067c0,12.101,2.324,23.455,6.928,34.11
	c4.603,10.654,10.872,19.905,18.852,27.841c7.98,7.937,17.274,14.162,27.929,18.766c10.609,4.604,22.01,6.883,34.111,6.883
	c12.101,0,23.457-2.279,34.11-6.883s19.905-10.829,27.84-18.766c7.937-7.936,14.163-17.187,18.767-27.841
	c4.604-10.61,6.883-22.01,6.883-34.11C183.42,83.966,181.141,72.61,176.537,61.957z M133.418,111.837
	c-2.073,4.883-4.953,9.169-8.643,12.788c-3.653,3.619-7.939,6.499-12.857,8.642c-4.918,2.142-10.116,3.197-15.667,3.197
	s-10.75-1.056-15.667-3.197c-4.883-2.143-9.169-5.022-12.788-8.642c-3.618-3.619-6.499-7.869-8.642-12.788
	c-2.142-4.917-3.196-10.117-3.196-15.667c0-5.549,1.054-10.749,3.196-15.668c2.143-4.883,5.024-9.168,8.642-12.787
	c3.619-3.618,7.869-6.5,12.788-8.643c4.917-2.143,10.117-3.196,15.667-3.196S107,56.93,111.918,59.073
	c4.883,2.143,9.169,5.024,12.857,8.643c3.689,3.618,6.569,7.868,8.643,12.787c2.071,4.919,3.127,10.119,3.127,15.668
	C136.545,101.72,135.489,106.92,133.418,111.837z"/>
</svg>
