<?xml version="1.0" standalone="no"?><!DOCTYPE svg PUBLIC "-//W3C//DTD SVG 1.1//EN" "http://www.w3.org/Graphics/SVG/1.1/DTD/svg11.dtd"><svg t="1520603164102" class="icon" style="" viewBox="0 0 1024 1024" version="1.1" xmlns="http://www.w3.org/2000/svg" p-id="1924" xmlns:xlink="http://www.w3.org/1999/xlink" width="1024" height="1024"><defs><style type="text/css"></style></defs><path d="M461.33544922 405.39746094L264.71533203 208.77734375H327.4296875a39.55078125 39.55078125 0 1 0 0-79.1015625H169.2265625a39.55078125 39.55078125 0 0 0-39.55078125 39.55078125v158.203125a39.55078125 39.55078125 0 1 0 79.1015625 0v-62.71435547l196.62011719 196.62011719 0.03955078-0.03955078c7.11914063 6.88183594 16.78271484 11.15332031 27.46142578 11.15332031a39.55078125 39.55078125 0 0 0 39.55078125-39.55078125c0-10.67871094-4.27148438-20.34228516-11.16650391-27.46142578l0.05273438-0.03955078zM432.8984375 551.55078125c-10.67871094 0-20.34228516 4.28466797-27.44824219 11.1796875l-0.03955078-0.05273438L208.77734375 759.28466797V696.5703125a39.55078125 39.55078125 0 1 0-79.1015625 0v158.203125a39.55078125 39.55078125 0 0 0 39.55078125 39.55078125h158.203125a39.55078125 39.55078125 0 1 0 0-79.1015625h-62.71435547l196.62011719-196.62011719-0.03955078-0.03955078c6.88183594-7.11914063 11.15332031-16.76953125 11.15332031-27.46142578a39.55078125 39.55078125 0 0 0-39.55078125-39.55078125z m421.875 105.46875a39.55078125 39.55078125 0 0 0-39.55078125 39.55078125v62.71435547L618.60253906 562.66455078l-0.03955078 0.03955078A39.41894531 39.41894531 0 0 0 591.1015625 551.55078125a39.55078125 39.55078125 0 0 0-39.55078125 39.55078125c0 10.69189453 4.27148438 20.34228516 11.1796875 27.46142578l-0.05273438 0.03955078L759.28466797 815.22265625H696.5703125a39.55078125 39.55078125 0 1 0 0 79.1015625h158.203125a39.55078125 39.55078125 0 0 0 39.55078125-39.55078125V696.5703125a39.55078125 39.55078125 0 0 0-39.55078125-39.55078125z m0-527.34375H696.5703125a39.55078125 39.55078125 0 1 0 0 79.1015625h62.71435547L562.66455078 405.39746094l0.03955078 0.03955078A39.4453125 39.4453125 0 0 0 551.55078125 432.8984375a39.55078125 39.55078125 0 0 0 39.55078125 39.55078125c10.69189453 0 20.34228516-4.28466797 27.46142578-11.16650391l0.03955078 0.03955078L815.22265625 264.71533203V327.4296875a39.55078125 39.55078125 0 1 0 79.1015625 0V169.2265625a39.55078125 39.55078125 0 0 0-39.55078125-39.55078125z" fill="#5ab402" p-id="1925"></path></svg>