<?xml version="1.0" standalone="no"?><!DOCTYPE svg PUBLIC "-//W3C//DTD SVG 1.1//EN" "http://www.w3.org/Graphics/SVG/1.1/DTD/svg11.dtd"><svg t="1520603339993" class="icon" style="" viewBox="0 0 1024 1024" version="1.1" xmlns="http://www.w3.org/2000/svg" p-id="1953" xmlns:xlink="http://www.w3.org/1999/xlink" width="1024" height="1024"><defs><style type="text/css"></style></defs><path d="M857.02710024 487.87427141v24.67869177c0 190.54144123-155.0299017 345.56263481-345.58005106 345.56263404H486.76835818v49.37479903h24.678691c217.78030684 0 394.94614119-177.17454248 394.94614196-394.93743307v-24.67869177h-49.3660909zM869.37515386 222.09504221h24.67869101v59.51970882h-24.67869101zM869.37515386 326.59197054h24.67869101v59.51970884h-24.67869101zM869.37515386 177.11782192h24.67869101V116.50089563h-59.51100071v24.68739912h34.8323097zM116.50090798 326.59197054h24.68739913v59.51970884H116.50090798zM116.50090798 431.08889888h24.68739913v59.51970883H116.50090798zM116.50090798 535.59453535h24.68739913v59.51100147H116.50090798zM116.50090798 222.09504221h24.68739913v59.51970882H116.50090798zM141.18830711 141.18829475h21.39574597V116.50089563H116.50090798v60.61692629h24.68739913zM141.18830711 849.08532114H116.50090798v46.06572961h74.88075719v-24.678691H141.18830711zM116.50090798 640.09146445h24.68739913v59.51100072H116.50090798zM116.50090798 744.5883928h24.68739913v59.5110007H116.50090798zM236.35888468 870.47235975h59.51970885v24.678691h-59.51970885zM340.85581303 870.47235975h59.5197096v24.678691h-59.5197096zM730.04591582 116.50089563h59.51100071v24.68739912h-59.51100071zM312.05820169 116.50089563h59.51970884v24.68739912h-59.51970884zM416.55513003 116.50089563h59.51970883v24.68739912h-59.51970883zM207.56127258 116.50089563h59.51970961v24.68739912h-59.51970961zM625.54898747 116.50089563h59.51100072v24.68739912h-59.51100071zM521.05205837 116.50089563h59.51100071v24.68739912h-59.51100071z" p-id="1954"></path></svg>