<?xml version="1.0" encoding="utf-8"?>
<!-- Generator: Adobe Illustrator 16.0.0, SVG Export Plug-In . SVG Version: 6.00 Build 0)  -->
<!DOCTYPE svg PUBLIC "-//W3C//DTD SVG 1.1//EN" "http://www.w3.org/Graphics/SVG/1.1/DTD/svg11.dtd">
<svg version="1.1" id="图层_3" xmlns="http://www.w3.org/2000/svg" xmlns:xlink="http://www.w3.org/1999/xlink" x="0px" y="0px"
	 width="192px" height="192px" viewBox="0 0 192 192" enable-background="new 0 0 192 192" xml:space="preserve">
<rect x="71.667" y="148.666" fill="#FFFFFF" width="43.667" height="30.333"/>
<path fill="none" d="M107,81h24v24h-24V81z"/>
<path fill="#FBBC05" d="M128.6,7.667H64.406c-11.072,0-20.059,8.987-20.059,20.06v136.409c0,11.071,8.987,20.059,20.059,20.059
	H128.6c11.07,0,20.06-8.987,20.06-20.059V27.727C148.659,16.654,139.67,7.667,128.6,7.667z M96.504,176.17
	c-6.662,0-12.037-5.376-12.037-12.034c0-6.661,5.375-12.037,12.037-12.037c6.658,0,12.034,5.376,12.034,12.037
	C108.538,170.794,103.162,176.17,96.504,176.17z M132.611,144.074H60.396V31.738h72.216V144.074z"/>
<path fill="none" d="M24,8.667h89.667v89.667H24V8.667z"/>
<rect x="60.396" y="31.738" fill="#4285F4" width="72.216" height="112.336"/>
<polygon fill="#FFFFFF" points="86.198,85.418 93.56,94.265 103.864,81 117.115,98.667 75.891,98.667 "/>
</svg>
