<?xml version="1.0" standalone="no"?><!DOCTYPE svg PUBLIC "-//W3C//DTD SVG 1.1//EN" "http://www.w3.org/Graphics/SVG/1.1/DTD/svg11.dtd"><svg t="1520614505460" class="icon" style="" viewBox="0 0 1024 1024" version="1.1" xmlns="http://www.w3.org/2000/svg" p-id="2081" xmlns:xlink="http://www.w3.org/1999/xlink" width="1024" height="1024"><defs><style type="text/css"></style></defs><path d="M118.51633232 708.74160928l327.90238242-1e-8L446.41871386 315.25749161 118.51633232 315.25749161 118.51633232 708.74160928zM162.23658945 358.97774873l240.46096729 0 0 306.04270341-240.46096729 1e-8L162.23658945 358.97774873zM577.57948701 315.25749161l0 393.48411766 327.90328154 1e-8L905.48276855 315.25749161 577.57948701 315.25749161zM861.76341055 665.02135127l-240.46096729 0L621.30244326 358.97774873l240.46096729 0L861.76341055 665.02135127zM555.71890888 162.23614033c0-24.14413037-19.55364258-43.72025801-43.719358-43.72025801-24.12254531 0-43.72025801 19.57612763-43.72025801 43.72025801 0 16.17553301 8.80143223 30.28876435 21.86057812 37.85083681L490.13987099 823.91212373c-13.0591459 7.56207334-21.86057812 21.67620381-21.86057812 37.85083682 0 24.1450295 19.59771269 43.72025801 43.72025801 43.72025801 24.16571543 0 43.719358-19.57612763 43.719358-43.72025801 0-16.18272773-8.78974013-30.30225469-21.86057812-37.86252891L533.85832989 200.09866924C546.92916787 192.53929414 555.71890888 178.41976719 555.71890888 162.23614033z" p-id="2082"></path></svg>