<?xml version="1.0" standalone="no"?><!DOCTYPE svg PUBLIC "-//W3C//DTD SVG 1.1//EN" "http://www.w3.org/Graphics/SVG/1.1/DTD/svg11.dtd"><svg t="1520603593438" class="icon" style="" viewBox="0 0 1024 1024" version="1.1" xmlns="http://www.w3.org/2000/svg" p-id="2639" xmlns:xlink="http://www.w3.org/1999/xlink" width="1024" height="1024"><defs><style type="text/css"></style></defs><path d="M944.476 189.266c20.95-20.95 20.95-54.87 0-75.822l-37.078-37.078c-20.95-20.95-54.87-20.95-75.822 0l-90.95 90.95 112.899 112.899 90.95-90.95z" p-id="2640"></path><path d="M952.954 380.479l-312.592-312.592c-16.295-16.295-42.732-16.295-59.027 0l-110.405 110.405c-16.295 16.295-16.295 42.732 0 59.027l64.015 64.015-451.762 451.596c-27.767 27.767-27.767 72.66 0 100.43l93.445 93.445c27.767 27.767 72.66 27.767 100.43 0l451.762-451.762 54.539 54.539c16.295 16.295 42.732 16.295 59.027 0l110.405-110.405c16.462-16.129 16.462-42.4 0.166-58.694zM265.085 916.043c-21.45 21.45-56.199 21.45-77.649 0l-73.161-73.161c-21.45-21.45-21.45-56.199 0-77.649l442.284-442.449 150.807 150.807-442.284 442.449z" p-id="2641"></path><path d="M83.682 913.881c0 18.124 14.63 32.755 32.755 32.755h58.694l-91.451-91.451v58.694z" p-id="2642"></path></svg>