<?xml version="1.0" encoding="utf-8"?>
<!-- Generator: Adobe Illustrator 16.0.0, SVG Export Plug-In . SVG Version: 6.00 Build 0)  -->
<!DOCTYPE svg PUBLIC "-//W3C//DTD SVG 1.1//EN" "http://www.w3.org/Graphics/SVG/1.1/DTD/svg11.dtd">
<svg version="1.1" id="图层_3" xmlns="http://www.w3.org/2000/svg" xmlns:xlink="http://www.w3.org/1999/xlink" x="0px" y="0px"
	 width="192px" height="192px" viewBox="0 0 192 192" enable-background="new 0 0 192 192" xml:space="preserve">
<path fill="#FBBC05" d="M160.75,20H31.25C25.035,20,20,25.035,20,31.25v129.5c0,6.216,5.034,11.25,11.25,11.25h129.5
	c6.217,0,11.25-5.034,11.25-11.25V31.25C172,25.035,166.967,20,160.75,20z"/>
<g>
	<path fill="#FFFFFF" d="M128.504,88.504c-2.222,0-4.207,0.96-5.595,2.499h-14.842l10.485-10.487
		c2.049,0.107,4.143-0.619,5.722-2.177c2.926-2.926,2.926-7.689,0-10.614c-2.925-2.926-7.688-2.926-10.612,0
		c-1.58,1.58-2.307,3.673-2.179,5.724l-10.486,10.486V69.091c1.538-1.366,2.499-3.375,2.499-5.595c0-4.143-3.353-7.496-7.495-7.496
		c-4.144,0-7.497,3.353-7.497,7.496c0,2.22,0.961,4.208,2.498,5.595v14.844L80.517,73.448c0.107-2.051-0.619-4.144-2.178-5.724
		c-2.926-2.926-7.688-2.926-10.614,0c-2.926,2.925-2.926,7.688,0,10.614c1.581,1.58,3.673,2.306,5.723,2.177l10.486,10.487H69.091
		c-1.366-1.539-3.373-2.499-5.595-2.499C59.354,88.504,56,91.857,56,96c0,4.143,3.354,7.496,7.496,7.496
		c2.222,0,4.208-0.96,5.595-2.498h14.843l-10.486,10.485c-2.05-0.105-4.142,0.619-5.723,2.18c-2.926,2.924-2.926,7.688,0,10.613
		c2.926,2.925,7.688,2.925,10.614,0c1.58-1.58,2.307-3.673,2.178-5.724l10.485-10.487v14.844c-1.537,1.367-2.498,3.375-2.498,5.596
		c0,4.144,3.353,7.496,7.496,7.496c4.144,0,7.496-3.353,7.496-7.496c0-2.221-0.961-4.208-2.499-5.596v-14.844l10.486,10.487
		c-0.106,2.051,0.618,4.144,2.179,5.724c2.924,2.925,7.688,2.925,10.612,0c2.926-2.925,2.926-7.689,0-10.613
		c-1.579-1.581-3.673-2.308-5.722-2.18l-10.485-10.485h14.842c1.365,1.538,3.373,2.498,5.595,2.498c4.144,0,7.496-3.353,7.496-7.496
		C136,91.857,132.647,88.504,128.504,88.504L128.504,88.504L128.504,88.504z"/>
</g>
</svg>
