<?xml version="1.0" encoding="utf-8"?>
<!-- Generator: Adobe Illustrator 16.0.0, SVG Export Plug-In . SVG Version: 6.00 Build 0)  -->
<!DOCTYPE svg PUBLIC "-//W3C//DTD SVG 1.1//EN" "http://www.w3.org/Graphics/SVG/1.1/DTD/svg11.dtd">
<svg version="1.1" id="图层_3" xmlns="http://www.w3.org/2000/svg" xmlns:xlink="http://www.w3.org/1999/xlink" x="0px" y="0px"
	 width="192px" height="192px" viewBox="0 0 192 192" enable-background="new 0 0 192 192" xml:space="preserve">
<line fill="none" x1="19" y1="73.362" x2="178.469" y2="73.362"/>
<path fill="none" d="M47.735,76.083h51v51h-51V76.083z"/>
<path fill="none" d="M71,69h97v97H71V69z"/>
<path fill="#EA4335" d="M159.187,20.675L20.675,159.187c0.758,2.866,2.276,5.483,4.297,7.592c2.108,2.024,4.722,3.54,7.591,4.298
	L171.158,32.563C169.561,26.743,165.008,22.19,159.187,20.675z"/>
<polygon fill="#34A853" points="94.863,20 20,94.863 20,118.723 118.723,20 "/>
<path fill="#4285F4" d="M36.862,20C27.587,20,20,27.587,20,36.862v16.861L53.723,20H36.862z"/>
<path fill="#34A853" d="M154.891,171.75c4.633,0,8.848-1.852,11.888-4.972c3.112-3.04,4.972-7.254,4.972-11.888v-16.863
	l-33.723,33.723H154.891z"/>
<polygon fill="#4285F4" points="73.028,171.75 96.888,171.75 171.75,96.888 171.75,73.028 "/>
</svg>
